%TF.GenerationSoftware,KiCad,Pcbnew,5.1.9-73d0e3b20d~88~ubuntu20.04.1*%
%TF.CreationDate,2021-03-04T20:11:02-03:00*%
%TF.ProjectId,shield-attiny,73686965-6c64-42d6-9174-74696e792e6b,rev?*%
%TF.SameCoordinates,Original*%
%TF.FileFunction,Copper,L1,Top*%
%TF.FilePolarity,Positive*%
%FSLAX46Y46*%
G04 Gerber Fmt 4.6, Leading zero omitted, Abs format (unit mm)*
G04 Created by KiCad (PCBNEW 5.1.9-73d0e3b20d~88~ubuntu20.04.1) date 2021-03-04 20:11:02*
%MOMM*%
%LPD*%
G01*
G04 APERTURE LIST*
%TA.AperFunction,ComponentPad*%
%ADD10O,1.600000X1.600000*%
%TD*%
%TA.AperFunction,ComponentPad*%
%ADD11R,1.600000X1.600000*%
%TD*%
%TA.AperFunction,ComponentPad*%
%ADD12C,1.600000*%
%TD*%
%TA.AperFunction,ComponentPad*%
%ADD13C,2.000000*%
%TD*%
%TA.AperFunction,ComponentPad*%
%ADD14R,1.070000X1.800000*%
%TD*%
%TA.AperFunction,ComponentPad*%
%ADD15O,1.070000X1.800000*%
%TD*%
G04 APERTURE END LIST*
D10*
%TO.P,A1,16*%
%TO.N,Net-(A1-Pad16)*%
X168910000Y-68580000D03*
%TO.P,A1,15*%
%TO.N,Net-(A1-Pad15)*%
X171450000Y-68580000D03*
%TO.P,A1,30*%
%TO.N,Net-(A1-Pad30)*%
X131830000Y-68580000D03*
%TO.P,A1,14*%
%TO.N,Net-(A1-Pad14)*%
X171450000Y-116840000D03*
%TO.P,A1,29*%
%TO.N,GND*%
X134370000Y-68580000D03*
%TO.P,A1,13*%
%TO.N,Net-(A1-Pad13)*%
X168910000Y-116840000D03*
%TO.P,A1,28*%
%TO.N,D13*%
X136910000Y-68580000D03*
%TO.P,A1,12*%
%TO.N,Net-(A1-Pad12)*%
X166370000Y-116840000D03*
%TO.P,A1,27*%
%TO.N,D12*%
X139450000Y-68580000D03*
%TO.P,A1,11*%
%TO.N,Net-(A1-Pad11)*%
X163830000Y-116840000D03*
%TO.P,A1,26*%
%TO.N,D11*%
X141990000Y-68580000D03*
%TO.P,A1,10*%
%TO.N,Net-(A1-Pad10)*%
X161290000Y-116840000D03*
%TO.P,A1,25*%
%TO.N,D10*%
X144530000Y-68580000D03*
%TO.P,A1,9*%
%TO.N,Net-(A1-Pad9)*%
X158750000Y-116840000D03*
%TO.P,A1,24*%
%TO.N,D9*%
X147070000Y-68580000D03*
%TO.P,A1,8*%
%TO.N,Net-(A1-Pad8)*%
X153670000Y-116840000D03*
%TO.P,A1,23*%
%TO.N,Net-(A1-Pad23)*%
X149610000Y-68580000D03*
%TO.P,A1,7*%
%TO.N,GND*%
X151130000Y-116840000D03*
%TO.P,A1,22*%
%TO.N,Net-(A1-Pad22)*%
X153670000Y-68580000D03*
%TO.P,A1,6*%
%TO.N,GND*%
X148590000Y-116840000D03*
%TO.P,A1,21*%
%TO.N,Net-(A1-Pad21)*%
X156210000Y-68580000D03*
%TO.P,A1,5*%
%TO.N,Net-(A1-Pad5)*%
X146050000Y-116840000D03*
%TO.P,A1,20*%
%TO.N,Net-(A1-Pad20)*%
X158750000Y-68580000D03*
%TO.P,A1,4*%
%TO.N,Net-(A1-Pad4)*%
X143510000Y-116840000D03*
%TO.P,A1,19*%
%TO.N,Net-(A1-Pad19)*%
X161290000Y-68580000D03*
%TO.P,A1,3*%
%TO.N,Net-(A1-Pad3)*%
X140970000Y-116840000D03*
%TO.P,A1,18*%
%TO.N,Net-(A1-Pad18)*%
X163830000Y-68580000D03*
%TO.P,A1,2*%
%TO.N,Net-(A1-Pad2)*%
X138430000Y-116840000D03*
%TO.P,A1,17*%
%TO.N,Net-(A1-Pad17)*%
X166370000Y-68580000D03*
D11*
%TO.P,A1,1*%
%TO.N,Net-(A1-Pad1)*%
X135890000Y-116840000D03*
D10*
%TO.P,A1,31*%
%TO.N,Net-(A1-Pad31)*%
X129290000Y-68580000D03*
%TO.P,A1,32*%
%TO.N,Net-(A1-Pad32)*%
X126750000Y-68580000D03*
%TD*%
D11*
%TO.P,C1,1*%
%TO.N,D10*%
X142240000Y-106680000D03*
D12*
%TO.P,C1,2*%
%TO.N,GND*%
X144740000Y-106680000D03*
%TD*%
%TO.P,R1,1*%
%TO.N,D9*%
X149225000Y-85725000D03*
D10*
%TO.P,R1,2*%
%TO.N,Net-(R1-Pad2)*%
X139065000Y-85725000D03*
%TD*%
%TO.P,R2,2*%
%TO.N,Net-(D1-Pad1)*%
X167640000Y-86360000D03*
D12*
%TO.P,R2,1*%
%TO.N,Net-(A1-Pad21)*%
X167640000Y-76200000D03*
%TD*%
%TO.P,R3,1*%
%TO.N,Net-(A1-Pad22)*%
X163830000Y-76200000D03*
D10*
%TO.P,R3,2*%
%TO.N,Net-(D1-Pad4)*%
X163830000Y-86360000D03*
%TD*%
%TO.P,R4,2*%
%TO.N,Net-(D1-Pad3)*%
X160020000Y-86360000D03*
D12*
%TO.P,R4,1*%
%TO.N,Net-(A1-Pad23)*%
X160020000Y-76200000D03*
%TD*%
D13*
%TO.P,SW1,2*%
%TO.N,GND*%
X109855000Y-73080000D03*
%TO.P,SW1,1*%
%TO.N,Net-(A1-Pad32)*%
X109855000Y-68580000D03*
%TO.P,SW1,2*%
%TO.N,GND*%
X116355000Y-73080000D03*
%TO.P,SW1,1*%
%TO.N,Net-(A1-Pad32)*%
X116355000Y-68580000D03*
%TD*%
D11*
%TO.P,U1,1*%
%TO.N,D10*%
X139700000Y-97790000D03*
D10*
%TO.P,U1,5*%
%TO.N,D11*%
X147320000Y-90170000D03*
%TO.P,U1,2*%
%TO.N,Net-(U1-Pad2)*%
X142240000Y-97790000D03*
%TO.P,U1,6*%
%TO.N,D12*%
X144780000Y-90170000D03*
%TO.P,U1,3*%
%TO.N,Net-(U1-Pad3)*%
X144780000Y-97790000D03*
%TO.P,U1,7*%
%TO.N,D13*%
X142240000Y-90170000D03*
%TO.P,U1,4*%
%TO.N,GND*%
X147320000Y-97790000D03*
%TO.P,U1,8*%
%TO.N,Net-(R1-Pad2)*%
X139700000Y-90170000D03*
%TD*%
D14*
%TO.P,D1,1*%
%TO.N,Net-(D1-Pad1)*%
X165100000Y-104140000D03*
D15*
%TO.P,D1,2*%
%TO.N,GND*%
X163830000Y-104140000D03*
%TO.P,D1,3*%
%TO.N,Net-(D1-Pad3)*%
X162560000Y-104140000D03*
%TO.P,D1,4*%
%TO.N,Net-(D1-Pad4)*%
X161290000Y-104140000D03*
%TD*%
M02*
