M48
; DRILL file {KiCad 5.1.9-73d0e3b20d~88~ubuntu20.04.1} date Thu Mar  4 20:11:55 2021
; FORMAT={-:-/ absolute / inch / decimal}
; #@! TF.CreationDate,2021-03-04T20:11:55-03:00
; #@! TF.GenerationSoftware,Kicad,Pcbnew,5.1.9-73d0e3b20d~88~ubuntu20.04.1
; #@! TF.FileFunction,Plated,1,2,PTH
FMAT,2
INCH
T1C0.0315
T2C0.0354
T3C0.0394
T4C0.0433
%
G90
G05
T1
X5.475Y-3.375
X5.5Y-3.55
X5.5Y-3.85
X5.6Y-3.55
X5.6Y-3.85
X5.6Y-4.2
X5.6984Y-4.2
X5.7Y-3.55
X5.7Y-3.85
X5.8Y-3.55
X5.8Y-3.85
X5.875Y-3.375
X6.3Y-3.0
X6.3Y-3.4
X6.45Y-3.0
X6.45Y-3.4
X6.6Y-3.0
X6.6Y-3.4
T2
X6.35Y-4.1
X6.4Y-4.1
X6.45Y-4.1
X6.5Y-4.1
T3
X4.9902Y-2.7
X5.0902Y-2.7
X5.1902Y-2.7
X5.2902Y-2.7
X5.35Y-4.6
X5.3902Y-2.7
X5.45Y-4.6
X5.4902Y-2.7
X5.55Y-4.6
X5.5902Y-2.7
X5.65Y-4.6
X5.6902Y-2.7
X5.75Y-4.6
X5.7902Y-2.7
X5.85Y-4.6
X5.8902Y-2.7
X5.95Y-4.6
X6.05Y-2.7
X6.05Y-4.6
X6.15Y-2.7
X6.25Y-2.7
X6.25Y-4.6
X6.35Y-2.7
X6.35Y-4.6
X6.45Y-2.7
X6.45Y-4.6
X6.55Y-2.7
X6.55Y-4.6
X6.65Y-2.7
X6.65Y-4.6
X6.75Y-2.7
X6.75Y-4.6
T4
X4.325Y-2.7
X4.325Y-2.8772
X4.5809Y-2.7
X4.5809Y-2.8772
T0
M30
